<?xml version="1.0" encoding="UTF-8" standalone="no"?>
<svg
   xmlns:dc="http://purl.org/dc/elements/1.1/"
   xmlns:cc="http://creativecommons.org/ns#"
   xmlns:rdf="http://www.w3.org/1999/02/22-rdf-syntax-ns#"
   xmlns:svg="http://www.w3.org/2000/svg"
   xmlns="http://www.w3.org/2000/svg"
   xmlns:sodipodi="http://sodipodi.sourceforge.net/DTD/sodipodi-0.dtd"
   xmlns:inkscape="http://www.inkscape.org/namespaces/inkscape"
   version="1.1"
   id="svg2"
   xml:space="preserve"
   width="755.90668"
   height="291.02667"
   viewBox="0 0 755.90668 291.02667"
   sodipodi:docname="NZRC_Bilingual_Logo_Horz_CMYK.eps"
>
    <defs id="defs6" />
    <sodipodi:namedview
        borderopacity="1"
        objecttolerance="10"
        gridtolerance="10"
        guidetolerance="10"
        inkscape:pageopacity="0"
        inkscape:pageshadow="2"
        inkscape:window-width="640"
        inkscape:window-height="480"
        id="namedview4"
    />
    <g
        id="g10"
        inkscape:groupmode="layer"
        inkscape:label="ink_ext_XXXXXX"
        transform="matrix(1.3333333,0,0,-1.3333333,0,291.02667)"
    >
        <g id="g12" transform="scale(0.1)">
            <path
                d="m 2082.95,1759.82 241.44,-252.94 v 239.84 h 34.54 v -323.6 l -241.49,252.52 v -238.6 h -34.49 v 322.78"
                style="fill:#231f20;fill-opacity:1;fill-rule:nonzero;stroke:none"
                id="path16"
            />
            <path
                d="m 2439.92,1746.72 h 160.59 v -32.04 h -126.09 v -92.04 h 122.37 v -32 h -122.37 v -121.53 h 126.09 v -32.07 h -160.59 v 309.68"
                style="fill:#231f20;fill-opacity:1;fill-rule:nonzero;stroke:none"
                id="path18"
            />
            <path
                d="m 2784.95,1514.67 100.21,248.03 100.16,-248.03 81.34,231.99 h 37.37 l -118.71,-325.62 -100.16,249.28 -100.21,-249.28 -118.66,325.62 h 37.36 l 81.3,-231.99"
                style="fill:#231f20;fill-opacity:1;fill-rule:nonzero;stroke:none"
                id="path20"
            />
            <path
                d="m 3470.42,1469.11 v -32.02 h -221.74 l 168.76,277.55 h -147.39 v 32.08 h 204.9 l -169.2,-277.61 h 164.67"
                style="fill:#231f20;fill-opacity:1;fill-rule:nonzero;stroke:none"
                id="path22"
            />
            <path
                d="m 3547.74,1746.72 h 160.55 v -32.04 h -126.08 v -92.04 h 122.37 v -32 h -122.37 v -121.53 h 126.08 v -32.07 h -160.55 v 309.68"
                style="fill:#231f20;fill-opacity:1;fill-rule:nonzero;stroke:none"
                id="path24"
            />
            <path
                d="m 3921.51,1680.99 -52.97,-124.03 h 104.73 z m -66.95,-156.06 -37.36,-87.89 h -37.78 l 142.93,324.46 139.17,-324.46 h -38.15 l -36.56,87.89 h -132.25"
                style="fill:#231f20;fill-opacity:1;fill-rule:nonzero;stroke:none"
                id="path26"
            />
            <path
                d="m 4162.66,1469.11 h 85.39 v -32.02 h -119.87 v 309.63 h 34.48 v -277.61"
                style="fill:#231f20;fill-opacity:1;fill-rule:nonzero;stroke:none"
                id="path28"
            />
            <path
                d="m 4453.06,1680.99 -52.96,-124.03 h 104.67 z m -66.94,-156.06 -37.37,-87.89 h -37.77 l 142.89,324.46 139.2,-324.46 h -38.19 l -36.53,87.89 h -132.23"
                style="fill:#231f20;fill-opacity:1;fill-rule:nonzero;stroke:none"
                id="path30"
            />
            <path
                d="m 4653.53,1759.82 241.46,-252.94 v 239.84 h 34.49 v -323.6 l -241.43,252.52 v -238.6 h -34.52 v 322.78"
                style="fill:#231f20;fill-opacity:1;fill-rule:nonzero;stroke:none"
                id="path32"
            />
            <path
                d="m 5061.8,1469.11 c 37.84,0 69.42,5.37 97.79,32.03 25.46,23.84 38.62,56.23 38.62,90.73 0,35.33 -13.61,69.39 -40.29,92.8 -28.32,25.06 -59.55,30.01 -96.12,30.01 h -25.02 v -245.57 z m -59.51,277.61 h 58.35 c 46.39,0 84.19,-6.2 120.7,-37.39 35.28,-30.44 51.37,-71.83 51.37,-117.87 0,-45.14 -16.45,-84.99 -50.54,-115.38 -37.03,-32.89 -73.95,-39.04 -122.38,-39.04 h -57.5 v 309.68"
                style="fill:#231f20;fill-opacity:1;fill-rule:nonzero;stroke:none"
                id="path34"
            />
            <path
                d="m 2188.17,1097.7 h 10.22 c 34.36,0 73.02,6.43 73.02,50.5 0,43.98 -38.66,50.46 -73.02,50.46 h -10.22 z m 231.39,-223.302 h -130.98 l -99.32,155.642 h -1.09 V 874.398 h -105.18 v 404.762 h 157.26 c 79.99,0 140.65,-38.13 140.65,-124.53 0,-55.86 -31.11,-104.17 -88.54,-114.39 l 127.2,-165.842"
                style="fill:#231f20;fill-opacity:1;fill-rule:nonzero;stroke:none"
                id="path36"
            />
            <path
                d="m 2580.13,1190.04 v -67.64 h 118.66 v -89.08 h -118.66 v -69.808 h 125.11 v -89.141 h -230.36 v 404.789 h 230.36 v -89.12 h -125.11"
                style="fill:#231f20;fill-opacity:1;fill-rule:nonzero;stroke:none"
                id="path38"
            />
            <path
                d="m 2902.26,963.512 h 23.61 c 62.84,0 116.52,34.359 116.52,113.298 0,72.41 -47.8,113.19 -115.44,113.19 h -24.69 z m -105.23,315.648 h 149.26 c 112.74,0 205.61,-88.54 205.61,-202.35 0,-113.869 -93.43,-202.412 -205.61,-202.412 h -149.26 v 404.762"
                style="fill:#231f20;fill-opacity:1;fill-rule:nonzero;stroke:none"
                id="path40"
            />
            <path
                d="m 3627.92,1143.38 c -21.48,28.93 -56.39,44.52 -92.36,44.52 -64.41,0 -107.9,-49.38 -107.9,-112.21 0,-63.9 44.02,-110.018 109.51,-110.018 34.36,0 68.75,16.617 90.75,42.908 V 882.41 c -34.91,-10.781 -60.14,-18.781 -92.88,-18.781 -56.39,0 -110.07,21.492 -151.95,59.621 -44.53,40.262 -64.96,92.82 -64.96,153.02 0,55.29 20.95,108.41 59.59,148.15 39.74,40.81 97.18,65.51 154.09,65.51 33.85,0 64.96,-7.5 96.11,-20.38 v -126.17"
                style="fill:#231f20;fill-opacity:1;fill-rule:nonzero;stroke:none"
                id="path42"
            />
            <path
                d="m 3824.93,1097.7 h 10.23 c 34.37,0 73.02,6.43 73.02,50.5 0,43.98 -38.65,50.46 -73.02,50.46 h -10.23 z m 231.43,-223.302 h -130.99 l -99.32,155.642 h -1.12 V 874.398 h -105.17 v 404.762 h 157.29 c 79.99,0 140.64,-38.13 140.64,-124.53 0,-55.86 -31.11,-104.17 -88.56,-114.39 l 127.23,-165.842"
                style="fill:#231f20;fill-opacity:1;fill-rule:nonzero;stroke:none"
                id="path44"
            />
            <path
                d="m 4190.04,1083.77 c 0,-69.83 51.56,-120.829 114.35,-120.829 62.83,0 114.35,50.999 114.35,120.829 0,55.81 -51.52,106.85 -114.35,106.85 -62.79,0 -114.35,-51.04 -114.35,-106.85 m 338.24,0.51 c 0,-130.979 -93.94,-223.35 -223.89,-223.35 -129.87,0 -223.83,92.371 -223.83,223.35 0,122.42 107.34,208.33 223.83,208.33 116.52,0 223.89,-85.91 223.89,-208.33"
                style="fill:#231f20;fill-opacity:1;fill-rule:nonzero;stroke:none"
                id="path46"
            />
            <path
                d="m 4815.51,1175.03 c -19.34,16.09 -44.01,26.8 -69.77,26.8 -19.33,0 -45.13,-11.26 -45.13,-33.8 0,-23.58 28.49,-32.72 46.74,-38.67 l 26.83,-8.03 c 56.38,-16.62 99.9,-45.09 99.9,-110.56 0,-40.282 -9.69,-81.668 -41.96,-109.028 -31.66,-26.801 -74.05,-38.113 -114.85,-38.113 -51.03,0 -100.9,17.211 -142.27,46.152 l 45.12,84.918 c 26.32,-23.179 57.44,-41.929 93.41,-41.929 24.69,0 50.99,12.359 50.99,40.812 0,29.518 -41.32,39.738 -63.91,46.158 -66.01,18.8 -109.49,35.98 -109.49,114.35 0,82.12 58.5,135.84 139.6,135.84 40.78,0 90.77,-12.9 126.67,-33.27 l -41.88,-81.63"
                style="fill:#231f20;fill-opacity:1;fill-rule:nonzero;stroke:none"
                id="path48"
            />
            <path
                d="m 5173.09,1175.03 c -19.37,16.09 -44.02,26.8 -69.83,26.8 -19.29,0 -45.08,-11.26 -45.08,-33.8 0,-23.58 28.43,-32.72 46.75,-38.67 l 26.82,-8.03 c 56.35,-16.62 99.79,-45.09 99.79,-110.56 0,-40.282 -9.6,-81.668 -41.84,-109.028 -31.65,-26.801 -74.07,-38.113 -114.87,-38.113 -51.04,0 -100.92,17.211 -142.31,46.152 l 45.1,84.918 c 26.35,-23.179 57.47,-41.929 93.5,-41.929 24.65,0 50.95,12.359 50.95,40.812 0,29.518 -41.35,39.738 -63.89,46.158 -66.04,18.8 -109.5,35.98 -109.5,114.35 0,82.12 58.5,135.84 139.58,135.84 40.81,0 90.69,-12.9 126.67,-33.27 l -41.84,-81.63"
                style="fill:#231f20;fill-opacity:1;fill-rule:nonzero;stroke:none"
                id="path50"
            />
            <path
                d="M 1309.77,873.148 V 436.582 H 873.379 V 873.148 H 436.586 v 436.582 h 436.793 v 436.61 h 436.391 v -436.61 h 436.58 V 873.148 h -436.58"
                style="fill:#ee2628;fill-opacity:1;fill-rule:nonzero;stroke:none"
                id="path52"
            />
            <path
                d="m 2179.42,437.75 h -23.73 l -46.22,65.98 h -8.12 v -65.98 h -19.57 v 155.941 h 23.74 c 13.94,0 28.93,-0.203 41.42,-7.242 13.12,-7.648 20.62,-22.328 20.62,-37.23 0,-22.328 -15,-40.949 -37.69,-43.629 z m -78.07,82.102 h 6.25 c 19.99,0 41.63,3.73 41.63,28.546 0,24.403 -23.32,27.922 -42.68,27.922 h -5.2 v -56.468"
                style="fill:#231f20;fill-opacity:1;fill-rule:nonzero;stroke:none"
                id="path54"
            />
            <path
                d="m 2334.9,437.75 h -19.56 v 155.941 h 22.48 c 48.29,0 63.29,-16.543 63.29,-45.089 0,-32.872 -25.19,-45.493 -54.97,-45.493 h -11.24 z m 0,82.719 h 6.25 c 19.99,0 41.63,3.73 41.63,28.551 0,24.402 -23.31,27.3 -42.67,27.3 h -5.21 v -55.851"
                style="fill:#231f20;fill-opacity:1;fill-rule:nonzero;stroke:none"
                id="path56"
            />
            <path
                d="m 2450.76,593.691 h 84.31 V 575.91 h -64.74 v -43.64 h 62.88 v -17.778 h -62.88 v -58.953 h 64.74 V 437.75 h -84.31 v 155.941"
                style="fill:#231f20;fill-opacity:1;fill-rule:nonzero;stroke:none"
                id="path58"
            />
            <path
                d="M 2673.39,593.691 H 2699 l -70.58,-70.109 71.82,-85.832 h -26.43 l -59.13,72.602 -7.9,-7.461 V 437.75 h -19.57 v 155.941 h 19.57 V 526.07 l 66.61,67.621"
                style="fill:#231f20;fill-opacity:1;fill-rule:nonzero;stroke:none"
                id="path60"
            />
            <path
                d="m 2765.88,476.84 -17.91,-39.09 h -21.02 l 74.95,162.559 74.94,-162.559 h -21.02 l -17.91,39.09 z m 36.02,80.859 -27.9,-63.07 h 55.79 z"
                style="fill:#231f20;fill-opacity:1;fill-rule:nonzero;stroke:none"
                id="path62"
            />
            <path
                d="m 3046.83,482.012 44.35,115 44.34,-115 43.92,111.679 h 21.24 l -65.16,-162.14 -44.34,114.371 -44.35,-114.371 -65.16,162.14 h 21.24 l 43.92,-111.679"
                style="fill:#231f20;fill-opacity:1;fill-rule:nonzero;stroke:none"
                id="path64"
            />
            <path
                d="m 3344.5,530.82 v 62.871 h 19.57 V 437.75 h -19.57 v 74.859 h -74.73 V 437.75 h -19.57 v 155.941 h 19.57 V 530.82 h 74.73"
                style="fill:#231f20;fill-opacity:1;fill-rule:nonzero;stroke:none"
                id="path66"
            />
            <path
                d="m 3419.47,593.691 h 84.31 V 575.91 h -64.74 v -43.64 h 62.87 v -17.778 h -62.87 v -58.953 h 64.74 V 437.75 h -84.31 v 155.941"
                style="fill:#231f20;fill-opacity:1;fill-rule:nonzero;stroke:none"
                id="path68"
            />
            <path
                d="m 3653.54,437.75 h -23.73 l -46.22,65.98 h -8.11 v -65.98 h -19.57 v 155.941 h 23.73 c 13.95,0 28.93,-0.203 41.43,-7.242 13.11,-7.648 20.61,-22.328 20.61,-37.23 0,-22.328 -15,-40.949 -37.68,-43.629 z m -78.06,82.102 h 6.24 c 19.99,0 41.63,3.73 41.63,28.546 0,24.403 -23.32,27.922 -42.67,27.922 h -5.2 v -56.468"
                style="fill:#231f20;fill-opacity:1;fill-rule:nonzero;stroke:none"
                id="path70"
            />
            <path
                d="m 3844.66,515.73 c 0,-46.332 -36.86,-81.289 -82.23,-81.289 -45.38,0 -82.24,34.957 -82.24,81.289 0,44.668 37.28,81.282 82.24,81.282 44.97,0 82.23,-36.614 82.23,-81.282 z m -19.57,0 c 0,34.329 -25.81,63.071 -62.66,63.071 -36.84,0 -62.67,-28.742 -62.67,-63.071 0,-35.589 28.74,-63.089 62.67,-63.089 33.92,0 62.66,27.5 62.66,63.089"
                style="fill:#231f20;fill-opacity:1;fill-rule:nonzero;stroke:none"
                id="path72"
            />
            <path
                d="m 3985.5,476.84 -17.89,-39.09 h -21.03 l 74.94,162.559 74.94,-162.559 h -21.02 l -17.9,39.09 z m 36.02,80.859 -27.9,-63.07 h 55.8 z"
                style="fill:#231f20;fill-opacity:1;fill-rule:nonzero;stroke:none"
                id="path74"
            />
            <path
                d="m 4284.05,515.73 c 0,-46.332 -36.84,-81.289 -82.23,-81.289 -45.38,0 -82.24,34.957 -82.24,81.289 0,44.668 37.28,81.282 82.24,81.282 44.97,0 82.23,-36.614 82.23,-81.282 z m -19.57,0 c 0,34.329 -25.81,63.071 -62.66,63.071 -36.85,0 -62.67,-28.742 -62.67,-63.071 0,-35.589 28.74,-63.089 62.67,-63.089 33.93,0 62.66,27.5 62.66,63.089"
                style="fill:#231f20;fill-opacity:1;fill-rule:nonzero;stroke:none"
                id="path76"
            />
            <path
                d="m 4371.03,437.75 h -19.57 v 138.16 h -37.26 v 17.781 h 94.11 V 575.91 h -37.28 V 437.75"
                style="fill:#231f20;fill-opacity:1;fill-rule:nonzero;stroke:none"
                id="path78"
            />
            <path
                d="m 4459.61,593.691 h 84.31 V 575.91 h -64.74 v -43.64 h 62.87 v -17.778 h -62.87 v -58.953 h 64.74 V 437.75 h -84.31 v 155.941"
                style="fill:#231f20;fill-opacity:1;fill-rule:nonzero;stroke:none"
                id="path80"
            />
            <path
                d="m 4623.11,476.84 -17.89,-39.09 h -21.02 l 74.93,162.559 74.94,-162.559 h -21.02 l -17.9,39.09 z m 36.02,80.859 -27.9,-63.07 h 55.8 z"
                style="fill:#231f20;fill-opacity:1;fill-rule:nonzero;stroke:none"
                id="path82"
            />
            <path
                d="m 4872.57,437.75 h -23.73 l -46.22,65.98 h -8.12 v -65.98 h -19.58 v 155.941 h 23.74 c 13.96,0 28.94,-0.203 41.42,-7.242 13.13,-7.648 20.62,-22.328 20.62,-37.23 0,-22.328 -14.99,-40.949 -37.67,-43.629 z m -78.07,82.102 h 6.25 c 19.98,0 41.63,3.73 41.63,28.546 0,24.403 -23.32,27.922 -42.67,27.922 h -5.21 v -56.468"
                style="fill:#231f20;fill-opacity:1;fill-rule:nonzero;stroke:none"
                id="path84"
            />
            <path
                d="m 5064.09,515.73 c 0,-46.332 -36.85,-81.289 -82.23,-81.289 -45.38,0 -82.24,34.957 -82.24,81.289 0,44.668 37.28,81.282 82.24,81.282 44.97,0 82.23,-36.614 82.23,-81.282 z m -19.56,0 c 0,34.329 -25.82,63.071 -62.67,63.071 -36.84,0 -62.67,-28.742 -62.67,-63.071 0,-35.589 28.74,-63.089 62.67,-63.089 33.93,0 62.67,27.5 62.67,63.089"
                style="fill:#231f20;fill-opacity:1;fill-rule:nonzero;stroke:none"
                id="path86"
            />
            <path
                d="m 5121.73,476.84 -17.89,-39.09 h -21.04 l 74.95,162.559 74.96,-162.559 h -21.04 l -17.9,39.09 z m 36.02,80.859 -27.9,-63.07 h 55.8 z"
                style="fill:#231f20;fill-opacity:1;fill-rule:nonzero;stroke:none"
                id="path88"
            />
            <path
                d="m 2251.83,437.75 h -19.57 v 155.941 h 19.57 V 437.75"
                style="fill:#231f20;fill-opacity:1;fill-rule:nonzero;stroke:none"
                id="path90"
            />
            <path
                d="m 2217.12,605.75 h 49.85 v 12.07 h -49.85 v -12.07"
                style="fill:#231f20;fill-opacity:1;fill-rule:nonzero;stroke:none"
                id="path92"
            />
        </g>
    </g>
</svg>
